# xmcd
#
# Track frame offsets: 
#        150
#        13047
#        28075
#
# Disc length: 577 seconds
#
# Revision: 1
# Processed by: cddbd v1.5.2PL0 Copyright (c) Steve Scherf et al.
# Submitted via: ExactAudioCopyFreeDBPlugin 1.0
#
DISCID=1b023f03
DTITLE=Dubstar - I (Friday Night) [CD1]
DYEAR=2000
DGENRE=Pop
TTITLE0=I (Friday Night) [Single Version]
TTITLE1=I Lost A Friend
TTITLE2=Elizabeth Taylor And Richard Burton
EXTD=
EXTT0=
EXTT1=
EXTT2=
PLAYORDER=
